<svg width="35" height="36" viewBox="0 0 35 36" fill="none" xmlns="http://www.w3.org/2000/svg">
<g clip-path="url(#clip0_13_273)">
<path d="M17.5 17.9999C19.2306 17.9999 20.9223 17.4867 22.3612 16.5252C23.8002 15.5638 24.9217 14.1972 25.5839 12.5984C26.2462 10.9995 26.4195 9.24018 26.0819 7.54284C25.7443 5.84551 24.9109 4.28641 23.6872 3.0627C22.4635 1.83899 20.9044 1.00563 19.207 0.668011C17.5097 0.33039 15.7504 0.503669 14.1515 1.16594C12.5527 1.8282 11.1861 2.94971 10.2246 4.38864C9.26318 5.82757 8.75 7.5193 8.75 9.24988C8.75232 11.5698 9.67493 13.7941 11.3154 15.4345C12.9558 17.0749 15.1801 17.9976 17.5 17.9999ZM17.5 3.41655C18.6537 3.41655 19.7815 3.75867 20.7408 4.39964C21.7001 5.04062 22.4478 5.95166 22.8893 7.01756C23.3308 8.08346 23.4463 9.25635 23.2212 10.3879C22.9962 11.5195 22.4406 12.5589 21.6248 13.3747C20.809 14.1905 19.7696 14.746 18.638 14.9711C17.5065 15.1962 16.3336 15.0807 15.2677 14.6392C14.2018 14.1977 13.2907 13.45 12.6498 12.4907C12.0088 11.5314 11.6667 10.4036 11.6667 9.24988C11.6667 7.70279 12.2812 6.21905 13.3752 5.12509C14.4692 4.03113 15.9529 3.41655 17.5 3.41655Z" fill="#3A4F39"/>
<path d="M17.5 20.9175C14.0202 20.9214 10.6841 22.3054 8.22349 24.766C5.76291 27.2266 4.37886 30.5628 4.375 34.0425C4.375 34.4293 4.52865 34.8002 4.80214 35.0737C5.07563 35.3472 5.44656 35.5009 5.83333 35.5009C6.22011 35.5009 6.59104 35.3472 6.86453 35.0737C7.13802 34.8002 7.29167 34.4293 7.29167 34.0425C7.29167 31.3351 8.36718 28.7386 10.2816 26.8242C12.1961 24.9097 14.7926 23.8342 17.5 23.8342C20.2074 23.8342 22.8039 24.9097 24.7184 26.8242C26.6328 28.7386 27.7083 31.3351 27.7083 34.0425C27.7083 34.4293 27.862 34.8002 28.1355 35.0737C28.409 35.3472 28.7799 35.5009 29.1667 35.5009C29.5534 35.5009 29.9244 35.3472 30.1979 35.0737C30.4714 34.8002 30.625 34.4293 30.625 34.0425C30.6211 30.5628 29.2371 27.2266 26.7765 24.766C24.3159 22.3054 20.9798 20.9214 17.5 20.9175Z" fill="#3A4F39"/>
</g>
<defs>
<clipPath id="clip0_13_273">
<rect width="35" height="35" fill="white" transform="translate(0 0.5)"/>
</clipPath>
</defs>
</svg>
