<svg width="35" height="35" viewBox="0 0 35 35" fill="none" xmlns="http://www.w3.org/2000/svg">
<g clip-path="url(#clip0_27_36)">
<path d="M17.5 17.5C19.2306 17.5 20.9223 16.9868 22.3612 16.0254C23.8002 15.0639 24.9217 13.6973 25.5839 12.0985C26.2462 10.4996 26.4195 8.7403 26.0819 7.04296C25.7443 5.34563 24.9109 3.78653 23.6872 2.56282C22.4635 1.33911 20.9044 0.505753 19.207 0.168133C17.5097 -0.169488 15.7504 0.00379125 14.1515 0.666058C12.5527 1.32832 11.1861 2.44983 10.2246 3.88876C9.26318 5.32769 8.75 7.01942 8.75 8.75C8.75232 11.0699 9.67493 13.2942 11.3154 14.9346C12.9558 16.5751 15.1801 17.4977 17.5 17.5ZM17.5 2.91667C18.6537 2.91667 19.7815 3.25879 20.7408 3.89976C21.7001 4.54074 22.4478 5.45178 22.8893 6.51768C23.3308 7.58359 23.4463 8.75647 23.2212 9.88803C22.9962 11.0196 22.4406 12.059 21.6248 12.8748C20.809 13.6906 19.7696 14.2462 18.638 14.4713C17.5065 14.6963 16.3336 14.5808 15.2677 14.1393C14.2018 13.6978 13.2907 12.9501 12.6498 11.9908C12.0088 11.0315 11.6667 9.90373 11.6667 8.75C11.6667 7.20291 12.2812 5.71918 13.3752 4.62521C14.4692 3.53125 15.9529 2.91667 17.5 2.91667Z" fill="#3A4F39"/>
<path d="M17.5 20.4175C14.0202 20.4213 10.6841 21.8054 8.22349 24.266C5.76291 26.7265 4.37886 30.0627 4.375 33.5425C4.375 33.9293 4.52865 34.3002 4.80214 34.5737C5.07563 34.8472 5.44656 35.0008 5.83333 35.0008C6.22011 35.0008 6.59104 34.8472 6.86453 34.5737C7.13802 34.3002 7.29167 33.9293 7.29167 33.5425C7.29167 30.8351 8.36718 28.2385 10.2816 26.3241C12.1961 24.4097 14.7926 23.3341 17.5 23.3341C20.2074 23.3341 22.8039 24.4097 24.7184 26.3241C26.6328 28.2385 27.7083 30.8351 27.7083 33.5425C27.7083 33.9293 27.862 34.3002 28.1355 34.5737C28.409 34.8472 28.7799 35.0008 29.1667 35.0008C29.5534 35.0008 29.9244 34.8472 30.1979 34.5737C30.4714 34.3002 30.625 33.9293 30.625 33.5425C30.6211 30.0627 29.2371 26.7265 26.7765 24.266C24.3159 21.8054 20.9798 20.4213 17.5 20.4175Z" fill="#3A4F39"/>
</g>
<defs>
<clipPath id="clip0_27_36">
<rect width="35" height="35" fill="white"/>
</clipPath>
</defs>
</svg>
